<svg width="22" height="41" viewBox="0 0 22 41" fill="none" xmlns="http://www.w3.org/2000/svg">
<path id="image 4 (Traced)" fill-rule="evenodd" clip-rule="evenodd" d="M9.9733 0.861928C9.84718 0.927862 8.7012 3.35352 5.19777 10.97C2.25575 17.366 0.588257 21.0727 0.588257 21.2166C0.588257 21.3736 0.654653 21.5028 0.80676 21.642L1.02519 21.8419H4.21532C5.96988 21.8419 7.40538 21.8658 7.40538 21.8951C7.40538 21.9244 5.88246 25.8938 4.0211 30.7159C2.15982 35.538 0.636616 39.5792 0.636261 39.6963C0.635338 40.0034 0.912851 40.2941 1.20698 40.2941C1.38671 40.2941 1.51418 40.2223 1.7216 40.0045C1.99251 39.72 20.821 15.4228 21.0595 15.0498C21.2206 14.7981 21.2146 14.4142 21.0459 14.1877L20.9102 14.0055L17.1794 13.9669L13.4485 13.9283L16.9308 7.9448C18.8461 4.65389 20.4582 1.86753 20.5133 1.75288C20.6638 1.43974 20.6357 1.24008 20.406 0.990321L20.1984 0.764648L15.1689 0.769898C11.6002 0.773604 10.0911 0.800318 9.9733 0.861928ZM18.8189 2.17505C18.7999 2.22886 17.1828 5.00317 15.2253 8.34024C12.8796 12.3389 11.6661 14.4757 11.6661 14.6075C11.6661 14.7175 11.7432 14.905 11.8374 15.0241L12.0087 15.2408L15.6408 15.2794L19.2729 15.318L11.3331 25.5571C6.96617 31.1886 3.38654 35.7906 3.37845 35.7837C3.37035 35.7767 4.61085 32.5287 6.13512 28.5657C7.65946 24.6027 8.9094 21.2544 8.91274 21.125C8.91707 20.9595 8.86168 20.8362 8.72626 20.7095L8.53361 20.5294H5.37757C3.64176 20.5294 2.22153 20.5119 2.22153 20.4906C2.22153 20.4693 4.12286 16.3175 6.44679 11.2645L10.6721 2.07715H14.7628C18.0366 2.07715 18.8466 2.09668 18.8189 2.17505Z" fill="white"/>
</svg>
