<svg width="33" height="28" viewBox="0 0 33 28" fill="none" xmlns="http://www.w3.org/2000/svg">
<path id="image 6 (Traced)" fill-rule="evenodd" clip-rule="evenodd" d="M8.47367 0.0401039C6.52501 0.286864 4.89478 1.0946 3.51035 2.4995C2.27176 3.75636 1.52574 5.08912 1.09223 6.81965C0.339419 9.82467 0.886782 12.7836 2.70943 15.5617C3.87814 17.343 5.38528 18.9779 8.15731 21.4714C9.92064 23.0575 15.2948 27.681 15.5557 27.8362C15.8015 27.9825 15.8929 28 16.4118 28C16.9303 28 17.0222 27.9824 17.2678 27.8365C17.5294 27.681 22.9158 23.0466 24.6662 21.4709C27.4459 18.9688 28.947 17.3406 30.1141 15.5617C31.9368 12.7836 32.4841 9.82467 31.7313 6.81965C31.2978 5.08912 30.5518 3.75636 29.3132 2.4995C28.0789 1.24702 26.7576 0.524252 25.0253 0.154112C24.1601 -0.0308041 22.5576 -0.0469588 21.7957 0.121432C19.6844 0.588192 18.0612 1.65607 16.5799 3.55264L16.4118 3.76795L16.2436 3.55264C14.7881 1.68905 13.1895 0.621303 11.1534 0.152694C10.5456 0.0128506 9.15176 -0.0457256 8.47367 0.0401039ZM10.5186 1.9212C12.2513 2.22586 13.751 3.24015 14.9359 4.90865C15.1406 5.19691 15.3891 5.54639 15.4879 5.68531C15.9432 6.32484 16.8804 6.32484 17.3356 5.68531C17.4345 5.54639 17.6829 5.19691 17.8876 4.90865C19.5073 2.62794 21.7617 1.55353 24.2185 1.89148C26.946 2.26668 29.0759 4.19464 29.8891 7.02454C30.5319 9.26154 30.2484 11.6104 29.0802 13.7259C28.1015 15.4983 26.4697 17.3518 23.6268 19.9202C22.2501 21.164 16.4665 26.1809 16.4093 26.181C16.3533 26.1811 10.591 21.1788 9.19676 19.9198C4.82514 15.972 3.09959 13.506 2.68399 10.6121C2.41557 8.74329 2.80249 6.7308 3.73371 5.15214C5.14266 2.76359 7.88442 1.45796 10.5186 1.9212Z" fill="white"/>
</svg>
