<svg width="31" height="33" viewBox="0 0 31 33" fill="none" xmlns="http://www.w3.org/2000/svg">
<path id="image 5 (Traced)" fill-rule="evenodd" clip-rule="evenodd" d="M28.1207 0.912866C28.0251 0.924795 27.6603 0.965606 27.31 1.00359C25.9717 1.14875 24.4069 1.5303 22.9094 2.07648C19.3293 3.38236 15.9341 5.7104 13.393 8.60182L12.9493 9.10669L12.1696 9.16564C8.57429 9.43751 5.0323 11.1346 2.48345 13.8066C2.06213 14.2483 2.03404 14.2943 2.03404 14.5433C2.03404 14.7449 2.07272 14.8559 2.19444 15.0036L2.35484 15.1982L4.69888 15.565C5.9881 15.7668 7.10273 15.941 7.17586 15.9522C7.29845 15.9709 7.28189 16.0053 6.96404 16.3928C6.57277 16.8697 6.49958 17.0924 6.63357 17.3985C6.75633 17.6791 14.6958 26.2747 14.9137 26.3629C15.1792 26.4705 15.3865 26.3811 15.8041 25.9792L16.1915 25.6063L16.5392 28.2328C16.7822 30.0678 16.9161 30.9074 16.9838 31.019C17.037 31.1069 17.1622 31.2154 17.2618 31.2602C17.6738 31.4452 18.0727 31.1077 19.1092 29.697C21.0731 27.0241 22.2282 23.7992 22.4701 20.3135L22.5262 19.5061L23.4715 18.4614C25.2764 16.4665 26.6008 14.4606 27.7377 11.9999C29.2544 8.71704 30.1158 5.11017 30.1176 2.03397C30.118 1.33472 30.0198 1.04974 29.7382 0.933648C29.6009 0.877015 28.5201 0.863139 28.1207 0.912866ZM28.8546 2.78835C28.6919 7.64685 26.291 13.4026 22.7951 17.3153C22.2841 17.8872 15.4355 24.5908 15.2041 24.7455C15.1701 24.7683 13.558 23.0682 11.5942 20.9387L8.04578 17.0909L11.1689 13.2982C12.8867 11.2122 14.6024 9.18059 14.9815 8.78346C18.5939 4.99986 23.7094 2.49375 28.3523 2.23307C28.9187 2.2013 28.8758 2.15383 28.8546 2.78835ZM20.9693 6.80966C19.8074 7.08171 18.8733 8.11002 18.6225 9.3933C18.5767 9.62768 18.5393 9.93245 18.5393 10.0706C18.5393 11.2569 19.2618 12.5269 20.2289 13.0404C20.6413 13.2594 21.2519 13.4274 21.6352 13.4274C22.7293 13.4274 23.9006 12.644 24.3742 11.5955C24.5762 11.1483 24.7312 10.4862 24.7312 10.0706C24.7312 8.88191 23.995 7.59022 23.0342 7.09301C22.3388 6.73319 21.6813 6.64296 20.9693 6.80966ZM22.4628 8.27251C22.7805 8.45082 23.1295 8.8293 23.2931 9.1733C23.4867 9.58009 23.5102 10.3333 23.3441 10.8108C22.7993 12.3769 20.6939 12.478 19.9798 10.9724C19.8247 10.6452 19.7652 9.88988 19.8636 9.49527C20 8.94796 20.5537 8.32274 21.0479 8.15774C21.3718 8.04962 22.1828 8.11542 22.4628 8.27251ZM11.5786 10.7828C10.3297 12.3463 8.29959 14.7481 8.22697 14.7481C8.08157 14.7481 4.1021 14.1233 4.07749 14.0965C4.0417 14.0577 4.74648 13.4706 5.36595 13.0233C6.04415 12.5336 7.55694 11.7094 8.36647 11.3885C9.07645 11.107 10.2837 10.7687 11.0095 10.6477C11.8294 10.511 11.801 10.5042 11.5786 10.7828ZM21.1136 21.4729C20.807 23.6982 20.0274 25.8757 18.8569 27.776C18.3795 28.5514 17.9595 29.1485 17.921 29.1067C17.8845 29.0671 17.3178 24.7042 17.3343 24.5898C17.3484 24.4924 21.147 20.7589 21.1874 20.8028C21.1963 20.8124 21.1631 21.1139 21.1136 21.4729ZM6.0024 22.3523C5.2916 22.4646 4.63037 22.7899 4.03128 23.3222C3.49107 23.8022 2.83818 25.0902 2.0674 27.1966C1.5774 28.5354 0.470581 32.1277 0.470581 32.3791C0.470581 32.6405 0.714713 32.9411 0.969036 32.9929C1.12602 33.0248 1.39887 32.9542 2.19601 32.6755C6.30947 31.2375 8.74153 30.0555 9.41173 29.1686C10.7015 27.4621 10.6483 25.1492 9.28347 23.5883C8.69659 22.917 7.9144 22.4851 7.037 22.3476C6.58181 22.2762 6.48163 22.2767 6.0024 22.3523ZM7.47721 23.8418C8.11191 24.1108 8.67905 24.7241 8.93812 25.4217C9.04298 25.7042 9.06661 25.8933 9.068 26.461C9.06956 27.1362 9.06389 27.1675 8.85537 27.625C8.48778 28.4313 8.0558 28.7891 6.61215 29.483C6.21208 29.6752 5.58513 29.9585 5.21887 30.1124C4.31369 30.4928 2.08187 31.3336 2.05489 31.3044C2.00729 31.2527 2.95811 28.3578 3.45083 27.0542C3.78755 26.1632 4.30517 25.0268 4.50113 24.7482C4.81741 24.2986 5.22912 23.9818 5.76823 23.7732C6.16923 23.618 7.03069 23.6526 7.47721 23.8418Z" fill="white"/>
</svg>
