<svg width="32" height="31" viewBox="0 0 32 31" fill="none" xmlns="http://www.w3.org/2000/svg">
<path id="image 7 (Traced)" fill-rule="evenodd" clip-rule="evenodd" d="M12.1422 0.769826C11.3615 0.935085 10.5718 1.59546 10.2395 2.36107C10.0144 2.87965 9.93521 3.32397 9.93521 4.06803V4.65211H5.68031H1.42541L1.1816 4.79984C1.03851 4.88655 0.889866 5.04878 0.821838 5.19256C0.709375 5.43024 0.705891 5.76827 0.705891 16.5012C0.705891 23.7511 0.727405 27.6871 0.768296 27.9195C0.976475 29.1029 1.86298 30.0587 2.96072 30.2831C3.4157 30.3761 29.2902 30.3761 29.7452 30.2831C30.2644 30.1769 30.8043 29.8689 31.1788 29.4651C31.5534 29.0613 31.8391 28.4793 31.9376 27.9195C31.9785 27.6872 32 23.7563 32 16.5178V5.47076L31.8625 5.17675C31.6036 4.62325 31.8713 4.65231 27.0339 4.65224L22.7707 4.65211V4.06803C22.7707 3.74687 22.7426 3.32443 22.7083 3.12939C22.5001 1.94595 21.6136 0.990238 20.5159 0.765806C20.1126 0.683374 12.5334 0.686998 12.1422 0.769826ZM20.4497 2.80796C20.8146 3.00867 20.937 3.32245 20.937 4.05644V4.65211H16.3529H11.7689V4.05644C11.7689 3.33418 11.8919 3.01117 12.2432 2.81119C12.4636 2.6858 12.6095 2.68105 16.3401 2.67822C20.0993 2.67538 20.2153 2.67907 20.4497 2.80796ZM29.7846 6.71126C29.7691 6.7566 29.1172 8.86293 28.3359 11.3921C27.3373 14.6243 26.8704 16.048 26.7644 16.1839C26.6814 16.2902 26.5121 16.4075 26.3882 16.4446C26.2508 16.4858 25.1437 16.5122 23.55 16.5124L20.937 16.5128V15.9172C20.937 15.1832 20.8146 14.8694 20.4497 14.6687C20.2155 14.5399 20.0964 14.5361 16.3529 14.5361C12.6095 14.5361 12.4904 14.5399 12.2562 14.6687C11.8913 14.8694 11.7689 15.1832 11.7689 15.9172V16.5128L9.15591 16.5124C7.56224 16.5122 6.45508 16.4858 6.31768 16.4446C6.19379 16.4075 6.02455 16.2902 5.94154 16.1839C5.8355 16.048 5.36859 14.6243 4.36999 11.3921C3.58868 8.86293 2.93676 6.7566 2.92129 6.71126C2.89886 6.6455 5.61088 6.6289 16.3529 6.6289C27.095 6.6289 29.807 6.6455 29.7846 6.71126ZM4.18791 16.9052C4.38778 17.326 4.92937 17.911 5.31285 18.1201C5.96838 18.4776 6.07283 18.488 9.03367 18.4888L11.7689 18.4896V19.0853C11.7689 19.8193 11.8913 20.1331 12.2562 20.3338C12.4904 20.4625 12.6095 20.4664 16.3529 20.4664C20.0964 20.4664 20.2155 20.4625 20.4497 20.3338C20.8146 20.1331 20.937 19.8193 20.937 19.0853V18.4896L23.6722 18.4888C26.6331 18.488 26.7375 18.4776 27.393 18.1201C27.7765 17.911 28.3181 17.326 28.518 16.9052C28.5947 16.7438 28.9948 15.5294 29.4071 14.2066L30.1568 11.8015L30.1616 19.6948C30.1663 27.4809 30.1647 27.5916 30.0433 27.8481C29.9641 28.0156 29.8343 28.1555 29.679 28.2409C29.4395 28.3727 29.3463 28.3736 16.3529 28.3736C3.3596 28.3736 3.26645 28.3727 3.02691 28.2409C2.8716 28.1555 2.74178 28.0156 2.66257 27.8481C2.54118 27.5916 2.53959 27.4809 2.5443 19.6948L2.54907 11.8015L3.29878 14.2066C3.7111 15.5294 4.1112 16.7438 4.18791 16.9052ZM19.1034 17.5012V18.4896H16.3529H13.6025V17.5012V16.5128H16.3529H19.1034V17.5012Z" fill="white"/>
</svg>
